<svg width="25" height="24" viewBox="0 0 25 24" fill="none" xmlns="http://www.w3.org/2000/svg">
<g clip-path="url(#clip0_3005_150)">
<path d="M12.3115 13.5C11.9137 13.5 11.5322 13.342 11.2509 13.0607C10.9696 12.7793 10.8115 12.3978 10.8115 12C10.8115 11.6022 10.9696 11.2206 11.2509 10.9393C11.5322 10.658 11.9137 10.5 12.3115 10.5C12.7093 10.5 13.0909 10.658 13.3722 10.9393C13.6535 11.2206 13.8115 11.6022 13.8115 12C13.8115 12.3978 13.6535 12.7793 13.3722 13.0607C13.0909 13.342 12.7093 13.5 12.3115 13.5ZM11.7835 16.494C11.9585 16.704 12.1345 16.908 12.3115 17.103C12.4885 16.908 12.6645 16.705 12.8395 16.494C12.4876 16.5015 12.1355 16.5015 11.7835 16.494ZM9.78852 16.369C9.02058 16.2891 8.25772 16.1662 7.50352 16.001C7.42852 16.351 7.37152 16.691 7.33352 17.017C7.14352 18.6 7.40852 19.562 7.81152 19.794C8.21452 20.027 9.17952 19.775 10.4565 18.82C10.7195 18.623 10.9845 18.404 11.2505 18.165C10.73 17.5941 10.2419 16.9945 9.78852 16.369ZM17.1195 16.001C16.4025 16.161 15.6365 16.285 14.8345 16.369C14.3811 16.9945 13.893 17.5941 13.3725 18.165C13.6385 18.405 13.9035 18.623 14.1665 18.82C15.4435 19.775 16.4085 20.027 16.8115 19.794C17.2145 19.562 17.4785 18.6 17.2905 17.017C17.2492 16.6759 17.1925 16.3369 17.1205 16.001H17.1195ZM18.5695 15.614C19.1465 18.253 18.8435 20.354 17.5615 21.094C16.2795 21.834 14.3085 21.046 12.3115 19.227C10.3145 21.046 8.34352 21.833 7.06152 21.093C5.77952 20.353 5.47652 18.253 6.05252 15.613C3.47852 14.794 1.81152 13.48 1.81152 12C1.81152 10.52 3.47852 9.20699 6.05252 8.38599C5.47652 5.74699 5.77952 3.64599 7.06152 2.90599C8.34352 2.16599 10.3145 2.95399 12.3115 4.77299C14.3085 2.95399 16.2795 2.16699 17.5615 2.90699C18.8435 3.64699 19.1465 5.74699 18.5705 8.38699C21.1445 9.20599 22.8115 10.52 22.8115 12C22.8115 13.48 21.1445 14.793 18.5705 15.614H18.5695ZM11.2495 5.83499C10.9952 5.6048 10.7306 5.38624 10.4565 5.17999C9.17952 4.22499 8.21452 3.97299 7.81152 4.20599C7.40852 4.43799 7.14452 5.39999 7.33252 6.98299C7.37252 7.30999 7.42852 7.64899 7.50252 7.99899C8.25705 7.83373 9.02025 7.71087 9.78852 7.63099C10.2635 6.97799 10.7535 6.37699 11.2505 5.83499H11.2495ZM14.8345 7.63099C15.6365 7.71499 16.4025 7.83999 17.1195 7.99899C17.1945 7.64899 17.2515 7.30899 17.2895 6.98299C17.4795 5.39999 17.2145 4.43799 16.8115 4.20599C16.4085 3.97299 15.4435 4.22499 14.1665 5.17999C13.8921 5.38622 13.6272 5.60477 13.3725 5.83499C13.8695 6.37699 14.3595 6.97799 14.8345 7.63099ZM12.8395 7.50599C12.6645 7.29599 12.4885 7.09199 12.3115 6.89699C12.1345 7.09199 11.9585 7.29499 11.7835 7.50599C12.1355 7.49852 12.4876 7.49852 12.8395 7.50599ZM8.68352 14.704C8.50108 14.4031 8.32504 14.0984 8.15552 13.79C8.06052 14.047 7.97252 14.3 7.89252 14.551C8.14952 14.607 8.41352 14.658 8.68252 14.704H8.68352ZM10.6155 14.938C11.7446 15.0219 12.8784 15.0219 14.0075 14.938C14.6447 14.0019 15.2116 13.0199 15.7035 12C15.2116 10.9801 14.6447 9.99804 14.0075 9.06199C12.8784 8.97813 11.7446 8.97813 10.6155 9.06199C9.97832 9.99804 9.41143 10.9801 8.91952 12C9.41143 13.0199 9.97832 14.0019 10.6155 14.938ZM16.4675 10.21C16.5625 9.95299 16.6505 9.69999 16.7305 9.44899C16.4684 9.3921 16.205 9.34109 15.9405 9.29599C16.1226 9.5969 16.2983 9.90164 16.4675 10.21ZM6.44152 9.83699C6.10152 9.94699 5.77952 10.067 5.47752 10.197C4.01252 10.825 3.31152 11.535 3.31152 12C3.31152 12.465 4.01152 13.175 5.47752 13.803C5.77952 13.933 6.10152 14.053 6.44152 14.163C6.66352 13.463 6.93852 12.737 7.26652 12C6.95135 11.295 6.67592 10.5728 6.44152 9.83699ZM7.89152 9.44899C7.97252 9.69899 8.06052 9.95299 8.15552 10.209C8.32505 9.90096 8.50109 9.59656 8.68352 9.29599C8.41352 9.34199 8.14952 9.39299 7.89252 9.44899H7.89152ZM18.1815 14.163C18.5215 14.053 18.8435 13.933 19.1455 13.803C20.6105 13.175 21.3115 12.465 21.3115 12C21.3115 11.535 20.6115 10.825 19.1455 10.197C18.8298 10.0625 18.5081 9.94237 18.1815 9.83699C17.9595 10.537 17.6845 11.263 17.3565 12C17.6845 12.737 17.9595 13.462 18.1815 14.163ZM16.7315 14.551C16.6505 14.301 16.5625 14.047 16.4675 13.791C16.298 14.099 16.122 14.4034 15.9395 14.704C16.2095 14.658 16.4735 14.607 16.7305 14.551H16.7315Z" fill="#607B96"/>
</g>
<defs>
<clipPath id="clip0_3005_150">
<rect width="24" height="24" fill="white" transform="translate(0.311523)"/>
</clipPath>
</defs>
</svg>
