<svg width="100" height="100" viewBox="0 0 100 100" fill="none" xmlns="http://www.w3.org/2000/svg">
<g clip-path="url(#clip0_3086_981)">
<rect width="100" height="100" rx="15.5" fill="#1A1A1A"/>
<path d="M22.7109 57.5L32.6949 35.1H37.8149L47.8309 57.5H42.3909L34.1989 37.724H36.2469L28.0229 57.5H22.7109ZM27.7029 52.7L29.0789 48.764H40.5989L42.0069 52.7H27.7029ZM66.5774 57.884C64.7854 57.884 63.068 57.6493 61.4254 57.18C59.7827 56.6893 58.46 56.06 57.4574 55.292L59.2174 51.388C60.1774 52.0707 61.308 52.636 62.6094 53.084C63.932 53.5107 65.2654 53.724 66.6094 53.724C67.6334 53.724 68.4547 53.628 69.0734 53.436C69.7134 53.2227 70.1827 52.9347 70.4814 52.572C70.78 52.2093 70.9294 51.7933 70.9294 51.324C70.9294 50.7267 70.6947 50.2573 70.2254 49.916C69.756 49.5533 69.1374 49.2653 68.3694 49.052C67.6014 48.8173 66.748 48.604 65.8094 48.412C64.892 48.1987 63.964 47.9427 63.0254 47.644C62.108 47.3453 61.2654 46.9613 60.4974 46.492C59.7294 46.0227 59.1 45.404 58.6094 44.636C58.14 43.868 57.9054 42.8867 57.9054 41.692C57.9054 40.412 58.2467 39.2493 58.9294 38.204C59.6334 37.1373 60.6787 36.2947 62.0654 35.676C63.4734 35.036 65.2334 34.716 67.3454 34.716C68.7534 34.716 70.14 34.8867 71.5054 35.228C72.8707 35.548 74.076 36.0387 75.1214 36.7L73.5214 40.636C72.476 40.0387 71.4307 39.6013 70.3854 39.324C69.34 39.0253 68.316 38.876 67.3134 38.876C66.3107 38.876 65.4894 38.9933 64.8494 39.228C64.2094 39.4627 63.7507 39.772 63.4734 40.156C63.196 40.5187 63.0574 40.9453 63.0574 41.436C63.0574 42.012 63.292 42.4813 63.7614 42.844C64.2307 43.1853 64.8494 43.4627 65.6174 43.676C66.3854 43.8893 67.228 44.1027 68.1454 44.316C69.084 44.5293 70.012 44.7747 70.9294 45.052C71.868 45.3293 72.7214 45.7027 73.4894 46.172C74.2574 46.6413 74.876 47.26 75.3454 48.028C75.836 48.796 76.0814 49.7667 76.0814 50.94C76.0814 52.1987 75.7294 53.3507 75.0254 54.396C74.3214 55.4413 73.2654 56.284 71.8574 56.924C70.4707 57.564 68.7107 57.884 66.5774 57.884Z" fill="#61DAFB"/>
<path d="M21 69H79.5" stroke="#61DAFB"/>
<path d="M21 75H79.5" stroke="#61DAFB"/>
</g>
<defs>
<clipPath id="clip0_3086_981">
<rect width="100" height="100" fill="white"/>
</clipPath>
</defs>
</svg>
